<?xml version="1.0" encoding="UTF-8"?>
<svg width="40px" height="40px" viewBox="0 0 40 40" version="1.1" xmlns="http://www.w3.org/2000/svg" xmlns:xlink="http://www.w3.org/1999/xlink">
    <!-- Generator: Sketch 43.2 (39069) - http://www.bohemiancoding.com/sketch -->
    <title>atom/button/shop</title>
    <desc>Created with Sketch.</desc>
    <defs></defs>
    <g id="Symbols" stroke="none" stroke-width="1" fill="none" fill-rule="evenodd">
        <g id="atom/button/shop" fill="#FFFFFF">
            <path d="M0,20 C0,8.954305 8.95187636,0 20,0 L20,0 C31.045695,0 40,8.95187636 40,20 L40,20 C40,31.045695 31.0481236,40 20,40 L20,40 C8.954305,40 0,31.0481236 0,20 L0,20 Z M28.7157288,26.2842712 C29.8202983,26.2842712 30.7157288,25.3888407 30.7157288,24.2842712 C30.7157288,23.1797017 29.8202983,22.2842712 28.7157288,22.2842712 C27.6111593,22.2842712 26.7157288,23.1797017 26.7157288,24.2842712 C26.7157288,25.3888407 27.6111593,26.2842712 28.7157288,26.2842712 Z M28.7157288,18.2842712 C27.6111593,18.2842712 26.7157288,17.3888407 26.7157288,16.2842712 C26.7157288,15.1797017 27.6111593,14.2842712 28.7157288,14.2842712 C29.8202983,14.2842712 30.7157288,15.1797017 30.7157288,16.2842712 C30.7157288,17.3888407 29.8202983,18.2842712 28.7157288,18.2842712 Z M15,13.0025525 C15,11.8965733 15.8466982,11.2822327 16.8976712,11.6325571 L22.1023288,13.3674429 C23.1503837,13.7167946 24,14.9019504 24,16.0085302 L24,23.9914698 C24,25.1007504 23.1453119,26.2441966 22.0827146,26.5477958 L11.9172854,29.4522042 C10.8583979,29.7547435 10,29.1123279 10,28 C10,28 10,29.0001322 10,28 C10,28 15,25.0812988 15,25.0812988 L15,13.0025525 Z" id="Combined-Shape" transform="translate(20.000000, 20.000000) rotate(-270.000000) translate(-20.000000, -20.000000) "></path>
        </g>
    </g>
</svg>